<svg width="32" height="32" viewBox="0 0 32 32" fill="none" xmlns="http://www.w3.org/2000/svg">
<g clip-path="url(#clip0_1956_20996)">
<path fill-rule="evenodd" clip-rule="evenodd" d="M0.694561 31.737C0.951566 31.9087 1.25372 32.0003 1.56279 32.0002C1.76803 32.0005 1.97131 31.9602 2.16093 31.8817C2.35056 31.8032 2.52281 31.688 2.66779 31.5427L16.0002 18.2102L29.3327 31.5427C29.4777 31.688 29.6499 31.8032 29.8396 31.8817C30.0292 31.9602 30.2325 32.0005 30.4377 32.0002C30.7468 32.0003 31.0489 31.9087 31.3059 31.737C31.5629 31.5653 31.7633 31.3212 31.8815 31.0357C31.9998 30.7501 32.0308 30.4359 31.9705 30.1328C31.9101 29.8297 31.7613 29.5512 31.5427 29.3327L18.2102 16.0002L31.5428 2.66771C31.8359 2.37464 32.0005 1.97716 32.0005 1.56271C32.0005 1.14825 31.8359 0.75077 31.5428 0.457706C31.2497 0.164642 30.8522 0 30.4378 0C30.0233 0 29.6259 0.164642 29.3328 0.457706L16.0002 13.7902L2.66771 0.457706C2.37464 0.164642 1.97716 0 1.56271 0C1.14825 0 0.75077 0.164642 0.457706 0.457706C0.164642 0.75077 1.24886e-09 1.14825 1.24886e-09 1.56271C1.24886e-09 1.97716 0.164642 2.37464 0.457706 2.66771L13.7902 16.0002L0.457792 29.3327C0.239214 29.5512 0.0903532 29.8297 0.0300396 30.1328C-0.0302739 30.4359 0.000669324 30.7501 0.118955 31.0357C0.237241 31.3212 0.437556 31.5653 0.694561 31.737Z" fill="black"/>
</g>
<defs>
<clipPath id="clip0_1956_20996">
<rect width="32" height="32" fill="white"/>
</clipPath>
</defs>
</svg>
