<svg width="32" height="32" viewBox="0 0 32 32" fill="none" xmlns="http://www.w3.org/2000/svg">
<g clip-path="url(#clip0_1955_20990)">
<path fill-rule="evenodd" clip-rule="evenodd" d="M26.615 31.0942C27.1795 31.6607 27.9416 31.98 28.7367 31.9834C29.5723 32.0716 30.4064 31.8051 31.0403 31.2475C31.0889 31.2015 31.1359 31.1539 31.1814 31.1047C32.3255 29.8685 32.2623 27.928 31.0403 26.7706L20.2789 15.9477L31.0404 5.06091C31.9939 3.8714 31.9336 2.15267 30.8993 1.03444C29.7555 -0.202124 27.8374 -0.266446 26.6151 0.890652L15.9926 11.6369L5.15498 0.737336C4.02028 -0.245779 2.34667 -0.245779 1.21187 0.737336C-0.059585 1.8389 -0.207612 3.77463 0.881178 5.06088L11.687 15.9925L0.881422 26.9239C-0.293807 28.1199 -0.293807 30.0515 0.881422 31.2475C1.47732 31.7657 2.2489 32.0295 3.03345 31.9834C3.80772 32.0215 4.56692 31.7582 5.15513 31.2475L15.9608 20.316L26.615 31.0942Z" fill="black"/>
</g>
<defs>
<clipPath id="clip0_1955_20990">
<rect width="32" height="32" fill="white"/>
</clipPath>
</defs>
</svg>
