<svg width="32" height="32" viewBox="0 0 32 32" fill="none" xmlns="http://www.w3.org/2000/svg">
<g clip-path="url(#clip0_1961_20969)">
<path fill-rule="evenodd" clip-rule="evenodd" d="M16 0C7.15606 0 0 7.15669 0 16C0 24.8439 7.15669 32 16 32C24.8439 32 32 24.8433 32 16C32 7.15606 24.8433 0 16 0ZM16 29.5C8.53794 29.5 2.5 23.4616 2.5 16C2.5 8.53794 8.53844 2.5 16 2.5C23.4621 2.5 29.5 8.53844 29.5 16C29.5 23.4621 23.4616 29.5 16 29.5ZM16 8.05469C15.3096 8.05469 14.75 8.61431 14.75 9.30469V17.3543C14.75 18.0446 15.3096 18.6043 16 18.6043C16.6904 18.6043 17.25 18.0446 17.25 17.3543V9.30469C17.25 8.61431 16.6904 8.05469 16 8.05469ZM17.6875 21.8223C17.6875 22.7542 16.932 23.5098 16 23.5098C15.068 23.5098 14.3125 22.7542 14.3125 21.8223C14.3125 20.8903 15.068 20.1348 16 20.1348C16.932 20.1348 17.6875 20.8903 17.6875 21.8223Z" fill="black"/>
</g>
<defs>
<clipPath id="clip0_1961_20969">
<rect width="32" height="32" fill="white"/>
</clipPath>
</defs>
</svg>
